<?xml version="1.0" encoding="utf-8"?>
<!-- Generator: Adobe Illustrator 27.0.0, SVG Export Plug-In . SVG Version: 6.00 Build 0)  -->
<svg version="1.1" id="Ebene_1" xmlns="http://www.w3.org/2000/svg" xmlns:xlink="http://www.w3.org/1999/xlink" x="0px" y="0px"
	 viewBox="0 0 162.99 243.49" style="enable-background:new 0 0 162.99 243.49;" xml:space="preserve">
<path d="M147.29,243.49c-3.48,0-6.91-1.17-9.76-3.46l-50.16-40.13c-3.46-2.77-8.29-2.77-11.75,0l-50.16,40.13
	c-4.75,3.8-11.1,4.52-16.58,1.89C3.4,239.29,0,233.88,0,227.8V0h162.99v227.8c0,6.08-3.4,11.49-8.88,14.12
	C151.92,242.97,149.59,243.49,147.29,243.49z M141.44,235.14c2.89,2.31,6.61,2.74,9.95,1.13c3.34-1.6,5.33-4.77,5.33-8.47V6.27H6.27
	V227.8c0,3.7,1.99,6.87,5.33,8.47c3.33,1.6,7.06,1.18,9.95-1.13l50.16-40.13c5.77-4.61,13.82-4.61,19.58,0L141.44,235.14z"/>
</svg>
