<?xml version="1.0" encoding="utf-8"?>
<!-- Generator: Adobe Illustrator 27.0.0, SVG Export Plug-In . SVG Version: 6.00 Build 0)  -->
<svg version="1.1" id="Ebene_1" xmlns="http://www.w3.org/2000/svg" xmlns:xlink="http://www.w3.org/1999/xlink" x="0px" y="0px"
	 viewBox="0 0 163.49 243.99" style="enable-background:new 0 0 163.49 243.99;" xml:space="preserve">
<g id="XMLID_00000153702595425237002550000009420791596924980655_">
	<g>
		<path d="M163.23,0.25v227.8c0,6.08-3.4,11.49-8.88,14.12c-2.18,1.05-4.51,1.57-6.82,1.57c-3.47,0-6.9-1.17-9.76-3.46l-50.16-40.12
			c-3.46-2.77-8.29-2.77-11.74,0l-50.16,40.12c-4.75,3.8-11.1,4.52-16.58,1.89s-8.88-8.04-8.88-14.12V0.25H163.23z M156.96,228.05
			V6.52H6.51v221.53c0,3.7,2,6.87,5.33,8.47c3.34,1.6,7.06,1.18,9.95-1.13l50.16-40.13c5.77-4.61,13.82-4.61,19.58,0l50.16,40.13
			c2.89,2.31,6.61,2.73,9.95,1.13C154.97,234.92,156.96,231.75,156.96,228.05z"/>
		<path d="M156.96,6.52v221.53c0,3.7-1.99,6.87-5.32,8.47c-3.34,1.6-7.06,1.18-9.95-1.13l-50.16-40.13
			c-5.76-4.61-13.81-4.61-19.58,0l-50.16,40.13c-2.89,2.31-6.61,2.73-9.95,1.13c-3.33-1.6-5.33-4.77-5.33-8.47V6.52H156.96z"/>
	</g>
	<g>
	</g>
</g>
</svg>
