<?xml version="1.0" encoding="utf-8"?>
<!-- Generator: Adobe Illustrator 27.0.0, SVG Export Plug-In . SVG Version: 6.00 Build 0)  -->
<svg version="1.1" id="Ebene_1" xmlns="http://www.w3.org/2000/svg" xmlns:xlink="http://www.w3.org/1999/xlink" x="0px" y="0px"
	 viewBox="0 0 267.44 258.05" style="enable-background:new 0 0 267.44 258.05;" xml:space="preserve">
<path d="M133.72,0L0,117h36.55v112.84c0,15.55,12.66,28.21,28.21,28.21h34.48h68.96h34.48c15.55,0,28.21-12.66,28.21-28.21V117
	h36.55L133.72,0z M105.51,251.78V148.35h56.42v103.43H105.51z"/>
<g id="XMLID_00000012462992548702085390000003726346723265642661_">
	<g>
		<path d="M250.75,110.73h-26.14v119.11c0,12.1-9.84,21.94-21.94,21.94h-34.48v-109.7H99.24v109.7H64.76
			c-12.1,0-21.94-9.84-21.94-21.94V110.73H16.68L133.72,8.33L250.75,110.73z"/>
	</g>
	<g>
	</g>
</g>
</svg>
