<?xml version="1.0" encoding="utf-8"?>
<!-- Generator: Adobe Illustrator 27.0.0, SVG Export Plug-In . SVG Version: 6.00 Build 0)  -->
<svg version="1.1" id="Ebene_1" xmlns="http://www.w3.org/2000/svg" xmlns:xlink="http://www.w3.org/1999/xlink" x="0px" y="0px"
	 viewBox="0 0 257.02 257.02" style="enable-background:new 0 0 257.02 257.02;" xml:space="preserve">
<path d="M128.51,0C57.65,0,0,57.65,0,128.51c0,29.03,9.47,56.44,27.38,79.29c24.57,31.28,61.44,49.22,101.13,49.22
	c39.7,0,76.56-17.94,101.14-49.22c17.91-22.85,27.37-50.26,27.37-79.29C257.02,57.65,199.37,0,128.51,0z M128.51,6.27
	c67.4,0,122.24,54.84,122.24,122.24c0,25.98-7.98,50.61-23.12,71.54c-16.51-30.44-45.33-51.09-78.72-57.11
	c17.5-7.84,29.75-25.38,29.75-45.77c0-27.65-22.5-50.15-50.15-50.15c-27.65,0-50.15,22.5-50.15,50.15
	c0,20.38,12.24,37.93,29.75,45.77c-33.39,6.03-62.21,26.68-78.72,57.11c-15.14-20.93-23.12-45.55-23.12-71.54
	C6.27,61.1,61.1,6.27,128.51,6.27z M219.56,210.04c-0.78,0.88-1.59,1.72-2.4,2.57c-0.79,0.83-1.57,1.67-2.37,2.47
	c-0.82,0.82-1.67,1.61-2.51,2.41c-0.83,0.78-1.65,1.58-2.5,2.33c-0.86,0.77-1.74,1.5-2.62,2.24c-0.87,0.73-1.73,1.48-2.62,2.18
	c-0.9,0.71-1.81,1.39-2.73,2.08c-0.91,0.68-1.81,1.37-2.73,2.03c-0.93,0.66-1.88,1.28-2.83,1.91c-0.94,0.63-1.88,1.27-2.83,1.87
	c-0.96,0.6-1.95,1.17-2.93,1.74c-0.97,0.57-1.93,1.16-2.92,1.71c-1,0.55-2.02,1.06-3.04,1.58c-0.99,0.51-1.98,1.04-2.99,1.53
	c-1.04,0.5-2.1,0.96-3.16,1.43c-1.01,0.45-2.01,0.92-3.03,1.34c-1.08,0.45-2.18,0.85-3.28,1.26c-1.02,0.39-2.03,0.8-3.06,1.16
	c-1.12,0.39-2.26,0.73-3.39,1.09c-1.03,0.33-2.05,0.68-3.09,0.98c-1.17,0.34-2.35,0.62-3.53,0.92c-1.02,0.26-2.04,0.55-3.08,0.79
	c-1.23,0.28-2.47,0.5-3.71,0.74c-1,0.2-2,0.42-3.01,0.59c-1.33,0.23-2.67,0.39-4,0.57c-0.94,0.13-1.87,0.29-2.82,0.39
	c-1.52,0.17-3.05,0.27-4.59,0.39c-0.78,0.06-1.54,0.15-2.32,0.19c-2.32,0.13-4.65,0.2-6.99,0.2c-2.34,0-4.67-0.07-6.99-0.2
	c-0.78-0.04-1.55-0.14-2.32-0.19c-1.53-0.12-3.07-0.22-4.59-0.39c-0.94-0.11-1.88-0.27-2.82-0.39c-1.34-0.18-2.68-0.34-4-0.57
	c-1.01-0.17-2-0.4-3.01-0.59c-1.24-0.24-2.49-0.46-3.71-0.75c-1.03-0.24-2.04-0.52-3.06-0.78c-1.18-0.3-2.37-0.58-3.54-0.92
	c-1.04-0.3-2.06-0.65-3.09-0.98c-1.13-0.36-2.27-0.7-3.39-1.09c-1.04-0.36-2.06-0.78-3.09-1.17c-1.08-0.41-2.18-0.81-3.25-1.25
	c-1.03-0.43-2.04-0.9-3.06-1.36c-1.04-0.47-2.09-0.92-3.12-1.41c-1.02-0.49-2.01-1.02-3.01-1.54c-1.01-0.52-2.02-1.02-3.01-1.57
	c-0.99-0.55-1.97-1.14-2.95-1.72c-0.97-0.57-1.95-1.13-2.9-1.73c-0.96-0.61-1.91-1.25-2.85-1.89c-0.94-0.63-1.89-1.24-2.81-1.9
	c-0.93-0.66-1.83-1.35-2.74-2.04c-0.91-0.68-1.83-1.36-2.72-2.07c-0.89-0.71-1.75-1.45-2.62-2.19c-0.88-0.74-1.76-1.47-2.62-2.24
	c-0.85-0.76-1.67-1.55-2.5-2.33c-0.84-0.8-1.69-1.58-2.51-2.41c-0.8-0.8-1.58-1.64-2.37-2.47c-0.81-0.85-1.62-1.7-2.41-2.58
	c-0.75-0.84-1.48-1.71-2.21-2.58c-0.57-0.67-1.13-1.34-1.68-2.02c18.32-35.91,54.52-58.12,94.95-58.12
	c40.43,0,76.63,22.21,94.95,58.12c-0.55,0.68-1.11,1.34-1.67,2C221.06,208.31,220.32,209.19,219.56,210.04z M128.51,141.05
	c-24.2,0-43.88-19.68-43.88-43.88c0-24.2,19.68-43.88,43.88-43.88c24.2,0,43.88,19.68,43.88,43.88
	C172.39,121.36,152.71,141.05,128.51,141.05z"/>
</svg>
